<svg width="25" height="24" viewBox="0 0 25 24" fill="none" xmlns="http://www.w3.org/2000/svg">
<path d="M11.0239 21.877C11.0265 22.2948 10.905 22.704 10.6748 23.0527C10.4445 23.4014 10.1159 23.6739 9.73066 23.8356C9.34537 23.9973 8.92074 24.041 8.51061 23.9611C8.10048 23.8811 7.72331 23.6812 7.42692 23.3867C7.13053 23.0922 6.92828 22.7163 6.84579 22.3066C6.76331 21.897 6.80432 21.4721 6.96361 21.0858C7.1229 20.6995 7.39331 20.3692 7.74055 20.1368C8.0878 19.9044 8.49623 19.7803 8.91408 19.7803C9.47136 19.7803 10.006 20.0008 10.4013 20.3936C10.7966 20.7864 11.0204 21.3197 11.0239 21.877ZM19.7138 19.7803C19.2965 19.7803 18.8886 19.9041 18.5417 20.1359C18.1947 20.3677 17.9243 20.6972 17.7646 21.0828C17.6049 21.4683 17.5631 21.8925 17.6445 22.3018C17.7259 22.711 17.9269 23.087 18.2219 23.382C18.517 23.6771 18.8929 23.8781 19.3022 23.9595C19.7115 24.0409 20.1357 23.9991 20.5212 23.8394C20.9067 23.6797 21.2363 23.4093 21.4681 23.0623C21.6999 22.7154 21.8237 22.3074 21.8237 21.8902C21.8237 21.3306 21.6014 20.7939 21.2057 20.3983C20.81 20.0026 20.2734 19.7803 19.7138 19.7803ZM24.184 6.92348L22.0478 15.4815C21.8308 16.3343 21.3356 17.0903 20.6406 17.6301C19.9456 18.1698 19.0905 18.4625 18.2106 18.4617H10.4173C9.53562 18.4617 8.67916 18.1672 7.98394 17.6249C7.28873 17.0826 6.79462 16.3235 6.58007 15.4683L3.4153 2.63786H1.31865C0.968923 2.63786 0.633519 2.49893 0.386224 2.25164C0.138929 2.00434 0 1.66894 0 1.31921C0 0.969482 0.138929 0.634078 0.386224 0.386783C0.633519 0.139488 0.968923 0.00055965 1.31865 0.00055965H4.44385C4.74508 -0.00821647 5.04022 0.0864474 5.28015 0.268791C5.52007 0.451135 5.69031 0.710157 5.7625 1.00273L6.79105 5.27516H22.7467H22.8654C22.9877 5.25568 23.1123 5.25568 23.2346 5.27516C23.4056 5.31798 23.5663 5.39464 23.7072 5.50062C23.848 5.6066 23.9662 5.73975 24.0547 5.89219C24.1432 6.04463 24.2003 6.21327 24.2225 6.38814C24.2447 6.56301 24.2316 6.74056 24.184 6.91029V6.92348ZM21.2171 7.91246H7.45038L9.17781 14.8222C9.24674 15.1016 9.4052 15.3508 9.62901 15.5318C9.85281 15.7127 10.1297 15.8155 10.4173 15.8244H18.171C18.4722 15.8331 18.7674 15.7385 19.0073 15.5561C19.2472 15.3738 19.4175 15.1148 19.4897 14.8222L21.2171 7.91246Z" fill="white"/>
</svg>
