<svg width="22" height="17" viewBox="0 0 22 17" fill="none" xmlns="http://www.w3.org/2000/svg">
<path d="M11 13.0041C12.3261 13.0041 13.5979 12.4773 14.5355 11.5396C15.4732 10.6019 16 9.33017 16 8.00409C16.0013 7.03634 15.7159 6.08989 15.18 5.28409L18.76 1.71409C18.8532 1.62085 18.9272 1.51016 18.9777 1.38834C19.0281 1.26652 19.0541 1.13595 19.0541 1.00409C19.0541 0.872233 19.0281 0.741665 18.9777 0.619843C18.9272 0.498021 18.8532 0.38733 18.76 0.294092C18.6668 0.200853 18.5561 0.126893 18.4342 0.0764322C18.3124 0.0259719 18.1819 -9.82427e-10 18.05 0C17.9181 9.82427e-10 17.7876 0.0259719 17.6658 0.0764322C17.5439 0.126893 17.4332 0.200853 17.34 0.294092L13.72 3.87409C12.9142 3.33816 11.9677 3.05283 11 3.05409C9.6826 3.06727 8.42364 3.59986 7.49674 4.53612C6.56985 5.47238 6.04993 6.73663 6.05 8.05409C6.04874 9.02184 6.33406 9.96829 6.87 10.7741L3.29 14.2941C3.1017 14.4824 2.99591 14.7378 2.99591 15.0041C2.99591 15.2704 3.1017 15.5258 3.29 15.7141C3.4783 15.9024 3.7337 16.0082 4 16.0082C4.2663 16.0082 4.5217 15.9024 4.71 15.7141L8.28 12.1341C9.08017 12.6877 10.0271 12.9906 11 13.0041ZM14.05 8.00409C14.0624 8.52415 13.9394 9.03849 13.693 9.49664C13.4465 9.95478 13.0852 10.341 12.6445 10.6173C12.2038 10.8937 11.6988 11.0507 11.179 11.0729C10.6593 11.0951 10.1427 10.9818 9.68 10.7441L13.68 6.74409C13.8934 7.13224 14.0196 7.56221 14.05 8.00409ZM8 8.00409C7.9876 7.48403 8.11064 6.96969 8.35705 6.51155C8.60345 6.0534 8.96476 5.6672 9.40549 5.39086C9.84623 5.11452 10.3512 4.95753 10.871 4.93531C11.3907 4.91308 11.9073 5.02638 12.37 5.26409L8.37 9.26409C8.15664 8.87594 8.03038 8.44598 8 8.00409ZM2.3 12.0041C1.68493 11.4045 1.14437 10.733 0.69 10.0041C0.277743 9.41494 0.0387171 8.72211 0 8.00409C0.0113841 7.56027 0.117056 7.12394 0.31 6.72409C0.517553 6.28548 0.765277 5.86702 1.05 5.47409C1.75797 4.54963 2.58132 3.71956 3.5 3.00409C5.60028 1.20357 8.23737 0.148736 11 0.00409174C11.7552 0.00661541 12.5074 0.100634 13.24 0.284092C13.3718 0.311332 13.4967 0.364895 13.6073 0.441573C13.7179 0.51825 13.8119 0.616464 13.8837 0.730331C13.9554 0.844198 14.0034 0.971374 14.0248 1.10424C14.0463 1.23711 14.0406 1.37293 14.0083 1.50357C13.976 1.63422 13.9176 1.75699 13.8367 1.86454C13.7558 1.97209 13.6541 2.0622 13.5375 2.12948C13.4209 2.19676 13.292 2.23981 13.1584 2.25607C13.0248 2.27233 12.8893 2.26145 12.76 2.22409C12.1839 2.08268 11.5932 2.00885 11 2.00409C9.49894 2.05089 8.03247 2.46645 6.73 3.21409C5.45659 3.91445 4.30226 4.81226 3.31 5.87409C2.8406 6.36697 2.44636 6.9263 2.14 7.53409C2.06869 7.68234 2.02143 7.84099 2 8.00409C2.05785 8.34271 2.19114 8.66398 2.39 8.94409C2.76294 9.52657 3.20258 10.0635 3.7 10.5441C3.89361 10.7297 4.00554 10.9847 4.01116 11.2529C4.01679 11.5211 3.91565 11.7805 3.73 11.9741C3.54435 12.1677 3.28939 12.2796 3.02121 12.2853C2.75304 12.2909 2.49361 12.1897 2.3 12.0041ZM22 8.00409C21.9886 8.44792 21.8829 8.88424 21.69 9.28409C21.4984 9.72083 21.2674 10.1392 21 10.5341C20.2766 11.4617 19.4363 12.2919 18.5 13.0041C16.3997 14.8046 13.7626 15.8594 11 16.0041C10.2448 16.0016 9.49262 15.9075 8.76 15.7241C8.51165 15.6523 8.30074 15.4872 8.17151 15.2633C8.04228 15.0394 8.00478 14.7742 8.06687 14.5232C8.12896 14.2723 8.28581 14.0551 8.50453 13.9173C8.72325 13.7795 8.98684 13.7318 9.24 13.7841C9.81614 13.9255 10.4068 13.9993 11 14.0041C12.5011 13.9573 13.9675 13.5417 15.27 12.7941C16.5434 12.0937 17.6977 11.1959 18.69 10.1341C19.1594 9.64122 19.5536 9.08188 19.86 8.47409C19.9313 8.32585 19.9786 8.16719 20 8.00409C19.966 7.68611 19.8563 7.38091 19.68 7.11409C19.36 6.57248 18.9624 6.08061 18.5 5.65409C18.307 5.47342 18.1933 5.22365 18.184 4.95941C18.1746 4.69518 18.2702 4.43798 18.45 4.24409C18.6307 4.05105 18.8804 3.93741 19.1447 3.92804C19.4089 3.91867 19.6661 4.01433 19.86 4.19409C20.4719 4.75734 20.9976 5.40766 21.42 6.12409C21.7631 6.6944 21.9621 7.33964 22 8.00409Z" fill="#7E7E7E"/>
</svg>
